<?xml version="1.0" encoding="UTF-8"?>
<svg id="Layer_1" xmlns="http://www.w3.org/2000/svg" version="1.1" viewBox="0 0 1547.72 336.53">
  <!-- Generator: Adobe Illustrator 29.3.0, SVG Export Plug-In . SVG Version: 2.1.0 Build 146)  -->
  <defs>
    <style>
      .st0 {
        fill: #161616;
      }
    </style>
  </defs>
  <path class="st0" d="M1250.02,134.96c0-64.27-52.23-76.56-84.37-76.56h-128.98l-4.87,4.87v265.25l4.87,4.87h29.2l4.87-4.87v-109.51l4.87-4.87h63.27l7.3,4.87,71.7,108.77,1.61,1.61,4.57,3.99h17.03l4.87-4.87v-26.77l-55.97-85.17v-4.87s60.03-9.26,60.03-76.75ZM1161.64,179.95c-22.9,0-86.03.13-86.03.13l-4.87-4.87v-77.87l4.87-4.87h92.47c14.46,0,41.76,5.53,41.76,44.1s-28.92,43.38-48.21,43.38Z"/>
  <polygon class="st0" points="1542.85 58.4 1333.57 58.4 1328.7 63.27 1328.7 87.61 1333.57 92.47 1413.87 92.47 1418.74 97.34 1418.74 328.52 1423.61 333.39 1452.81 333.39 1457.68 328.52 1457.68 97.34 1462.54 92.47 1542.85 92.47 1547.72 87.61 1547.72 63.27 1542.85 58.4"/>
  <polygon class="st0" points="1275.16 58.4 1270.3 63.27 1270.3 328.52 1275.16 333.39 1304.36 333.39 1309.23 328.52 1309.23 63.27 1304.36 58.4 1275.16 58.4"/>
  <path class="st0" d="M399.1,58.4h-31.64l-4.87,4.87-94.91,238.48v26.77l4.87,4.87h19.47l4.87-4.87,24.34-58.4,4.87-4.87h111.94l4.71,4.69,24.49,58.58,4.87,4.87h19.47l4.87-4.87v-29.2l-92.47-236.05-4.87-4.87ZM421,228.75h-77.87l-4.87-4.87,41.37-107.07h4.87l41.37,107.07-4.87,4.87Z"/>
  <path class="st0" d="M211.72,58.4l-4.87,4.87-77.87,187.38h-4.87L46.24,63.27l-4.87-4.87H4.87s-4.87,4.63-4.87,4.87v265.25l4.87,4.87h29.2l4.87-4.87v-153.31h4.87l68.14,153.31,4.87,4.87h24.34l4.87-4.87,63.27-153.31h4.87v153.31l4.87,4.87h29.2l4.87-4.87V63.27l-4.87-4.87h-36.5Z"/>
  <path class="st0" d="M658.6,181.46c-63.46-15.56-130.92-18.69-114.82-67.39,11.06-33.46,79.88-28.39,102.84-17.68,24.1,11.25,25.03,39.88,25.03,39.88l4.87,4.87h29.2l4.87-4.87s.31-15.78-1.93-23.78c-15.1-54.05-76.69-60.76-124.64-57.03-96.88,7.55-113.69,108.04-20.96,138.94,38.57,12.86,129.84,12.13,122.12,67.49-6.23,44.71-116.14,59.49-142.51,5.78-3.6-7.33-4.87-19.47-4.87-19.47l-4.87-4.87h-29.2l-4.87,4.87s1.94,25.8,5.1,33.53c22.66,55.61,105.13,61.98,155.52,49.21,87.09-22.08,87.74-127.78-.88-149.5Z"/>
  <polygon class="st0" points="866.33 170.35 941.77 97.34 941.77 63.27 936.9 58.4 927.17 58.4 922.3 60.84 781.16 199.55 776.29 199.55 776.29 63.27 771.42 58.4 742.22 58.4 737.36 63.27 737.36 328.52 742.22 333.39 771.42 333.39 776.29 328.52 776.29 260.39 778.73 253.09 834.7 199.55 839.56 199.55 924.74 330.96 929.6 333.39 944.2 333.39 949.07 328.52 949.07 301.76 866.33 175.21 866.33 170.35"/>
  <polygon class="st0" points="973.41 58.4 968.54 63.27 968.54 328.52 973.41 333.39 1002.61 333.39 1007.48 328.52 1007.48 63.27 1002.61 58.4 973.41 58.4"/>
  <polygon class="st0" points="992.87 0 983.14 0 978.27 4.87 988.01 24.34 997.74 4.87 992.87 0"/>
  <polygon class="st0" points="969.37 7.95 964.5 16.38 966.28 23.03 988.01 24.34 976.01 6.17 969.37 7.95"/>
  <polygon class="st0" points="964.5 32.29 969.37 40.72 976.01 42.5 988.01 24.34 966.28 25.64 964.5 32.29"/>
  <polygon class="st0" points="983.14 48.67 992.87 48.67 997.74 43.8 988.01 24.34 978.27 43.8 983.14 48.67"/>
  <polygon class="st0" points="1006.65 40.72 1011.52 32.29 1009.73 25.64 988.01 24.34 1000 42.5 1006.65 40.72"/>
  <polygon class="st0" points="1011.52 16.38 1006.65 7.95 1000 6.17 988.01 24.34 1009.73 23.03 1011.52 16.38"/>
  <polygon class="st0" points="1294.63 0 1284.9 0 1280.03 4.87 1289.76 24.34 1299.5 4.87 1294.63 0"/>
  <polygon class="st0" points="1271.12 7.95 1266.26 16.38 1268.04 23.03 1289.76 24.34 1277.77 6.17 1271.12 7.95"/>
  <polygon class="st0" points="1266.26 32.29 1271.12 40.72 1277.77 42.5 1289.76 24.34 1268.04 25.64 1266.26 32.29"/>
  <polygon class="st0" points="1284.9 48.67 1294.63 48.67 1299.5 43.8 1289.76 24.34 1280.03 43.8 1284.9 48.67"/>
  <polygon class="st0" points="1308.4 40.72 1313.27 32.29 1311.49 25.64 1289.76 24.34 1301.76 42.5 1308.4 40.72"/>
  <polygon class="st0" points="1313.27 16.38 1308.4 7.95 1301.76 6.17 1289.76 24.34 1311.49 23.03 1313.27 16.38"/>
</svg>